<?xml version="1.0" encoding="utf-8" ?><svg xmlns="http://www.w3.org/2000/svg" xmlns:xlink="http://www.w3.org/1999/xlink" width="394" height="404" viewBox="0 0 394 404"><path fill="#F1F0EE" d="M0 0L394 0L394 404L0 404L0 0Z"/><path fill="#232C2C" d="M107.572 22.3618C107.881 22.3523 108.19 22.3451 108.499 22.34C125.145 22.1212 142.148 22.3083 158.832 22.3056L237.258 22.3157L267.446 22.3099C276.357 22.2952 288.05 21.8628 296.527 23.8338C312.479 27.5427 323.689 33.7499 335.237 45.1266C350.069 59.7372 358.359 78.9819 358.403 99.8082C358.437 116.459 358.436 133.083 358.435 149.712L358.473 230.137L358.507 268.721C358.504 280.878 359.126 291.633 356.502 303.554C353.417 317.735 346.35 330.742 336.13 341.046C321.026 356.444 302.176 364.074 280.758 364.265L156.625 364.305L124.018 364.31C112.813 364.32 100.538 364.854 89.6191 362.272C55.3125 354.16 29.7661 322.879 29.3087 287.5C29.1354 274.098 29.2689 260.842 29.2579 247.516L29.212 167.552L29.1852 122.705C29.1765 110.758 28.3214 97.2235 30.8633 85.6176C39.1182 47.9272 69.6633 23.5873 107.572 22.3618Z"/><path fill="#F1F0EE" d="M268.25 71.7594C270.779 71.5554 272.636 90.0574 272.778 92.8082C275.158 138.928 260.802 193.884 219.151 219.374C195.752 233.694 165.102 238.523 138.449 231.979C135.847 231.356 132.432 230.558 130.221 229.14C130.54 221.382 138.102 203.655 142.072 196.04C164.098 153.796 202.026 114.913 240.649 87.3148C247.764 82.2304 260.325 74.504 268.25 71.7594Z"/><path fill="#232C2C" d="M265.644 77.9768L266.084 78.0835C266.564 78.9111 266.793 81.6527 266.944 82.8324C268.325 93.5496 268.628 104.378 267.85 115.156C261.34 118.59 254.743 121.193 248.274 124.991C212.081 146.238 179.673 173.637 151.639 204.808C147.604 209.294 143.117 213.709 139.278 218.354C138.977 218.674 137.829 220.232 137.507 220.651C138.214 218.247 140.094 213.636 141.071 211.096C145.29 200.127 151.881 188.911 158.184 178.979C160.312 175.624 164.243 170.672 166.727 167.379C187.902 139.316 213.933 113.244 242.229 92.3858C248.979 87.4109 258.093 81.3435 265.644 77.9768Z"/><path fill="#232C2C" d="M145.453 218.504C171.395 187.723 201.568 160.773 235.072 138.458C245.033 131.932 256.065 125.297 266.974 120.476C265.656 134.944 263.344 146.152 258.322 159.826C257.433 162.247 256.365 166.652 254.141 167.912C250.957 169.717 246.918 171.145 243.477 172.445L229.29 177.834C222.219 180.552 214.776 184.213 207.834 187.373C187.976 196.411 169.104 208.713 149.548 218.237C147.435 219.308 144.282 220.895 142.067 221.696L145.453 218.504Z"/><path fill="#393636" d="M145.453 218.504C145.908 218.646 145.285 218.431 145.914 218.741C146.818 219.188 148.319 218.326 149.548 218.237C147.435 219.308 144.282 220.895 142.067 221.696L145.453 218.504Z"/><path fill="#232C2C" d="M251.29 174.31L251.607 174.471L251.628 174.988C245.612 186.715 237.344 197.992 227.301 206.598C208.325 222.861 180.792 231.493 155.908 229.385C151.86 229.042 147.88 228.74 143.852 228.465C143.138 228.412 142.605 228.474 142.085 228.023L142.242 227.551C143.209 226.693 146.565 225.039 147.935 224.292C152.488 221.799 157.054 219.329 161.632 216.882C173.169 210.695 184.816 204.028 196.393 198.044C208.041 192.057 219.937 186.561 232.047 181.573C236.109 179.89 247.215 175.337 251.29 174.31Z"/><path fill="#F1F0EE" d="M197.861 251.113C202.818 250.983 207.508 251.201 212.445 251.247L248.864 251.819C255.714 251.92 310.889 251.788 313.785 253.489C314.08 254.343 314.067 253.912 313.735 254.827C313.066 255.437 312.316 255.786 311.403 255.839C295.886 256.742 279.948 257.137 264.435 257.043C238.534 256.651 212.629 256.563 186.725 256.779C158.796 257.546 130.849 257.451 102.926 256.496C95.4361 256.329 87.9485 256.091 80.4637 255.779C78.6206 255.69 71.5708 255.704 70.8087 254.677C70.7126 253.945 70.6414 253.764 70.8725 253.048C71.613 252.563 72.668 252.405 73.546 252.373C114.86 250.867 156.562 252.385 197.861 251.113Z"/><path fill="#F1F0EE" d="M244.601 273.12C249.511 273.091 278.029 273.325 280.547 275.314C280.783 276.153 280.765 275.724 280.48 276.643C279.156 277.45 244.723 278.523 240.218 278.633C230.733 278.865 218.305 278.463 208.411 278.702C202.999 278.832 196.108 279.112 190.668 279.219C172.756 279.643 154.838 279.646 136.926 279.226C128.037 278.955 110.467 278.274 100.876 277.159C100.749 277.035 100.622 276.911 100.495 276.787C100.519 275.609 100.354 275.965 100.938 275.08C104.025 273.124 155.122 273.759 162.554 273.758C189.904 273.818 217.254 273.605 244.601 273.12Z"/><path fill="#F1F0EE" d="M192.722 294.863C198.077 294.693 245.228 294.556 247.085 296.58C247.111 297.554 247.153 297.663 246.808 298.545C244.323 299.324 229.617 299.197 226.234 299.315C212.961 299.775 199.358 299.52 186.109 299.949C178.911 300.087 135.351 300.595 131.865 298.47C131.758 298.197 131.624 297.898 131.592 297.602C131.56 297.307 131.529 296.45 131.767 296.254C133.608 294.739 173.342 295.317 177.813 295.273C182.784 295.184 187.754 295.048 192.722 294.863Z"/><path fill="#F1F0EE" d="M176.619 313.107C180.236 312.894 185.071 313.11 188.75 313.219C196.909 313.44 205.06 313.891 213.194 314.573C213.149 315.425 213.15 316.373 213.133 317.234C209.565 317.311 205.999 317.465 202.437 317.696C190.837 318.04 177.008 318.747 165.466 316.946C164.797 316.842 164.936 315.287 165.365 314.685C167.831 313.529 173.794 313.273 176.619 313.107Z"/></svg>