<?xml version="1.0" encoding="utf-8" ?><svg xmlns="http://www.w3.org/2000/svg" xmlns:xlink="http://www.w3.org/1999/xlink" width="1054" height="168" viewBox="0 0 1054 168"><path fill="#F1F1EF" d="M0 0L1054 0L1054 168L0 168L0 0Z"/><path fill="#222A2A" d="M812.91 40.9434C826.487 41.0878 860.545 39.3335 869.192 46.6298C888.329 62.7781 876.901 82.8516 855.398 87.6475C864.418 100.213 874.865 113.609 884.244 126.031L866.539 126.15C866.229 126.171 865.939 126.164 865.632 126.108C863.393 125.7 841.305 93.4848 838.318 89.0139L828.612 89.0071L828.5 126.175L812.338 126.228L812.409 63.1752C812.399 59.8728 811.725 42.5046 812.91 40.9434Z"/><path fill="#F1F1EF" d="M828.744 45.5218C836.964 45.4286 849.201 44.3033 855.476 50.0058C863.567 57.3586 862.879 71.2156 856.14 79.1579C848.717 85.4702 838.044 84.2978 828.621 84.2952C828.567 71.3706 828.608 58.4458 828.744 45.5218Z"/><path fill="#222A2A" d="M161.122 40.9003L161.551 40.8942C167.761 40.8323 174.541 41.0738 180.915 41.1218C195.015 41.3605 212.129 39.4567 223.289 50.0042C231.936 58.1759 231.209 73.8296 222.896 81.999C214.899 89.8575 205.303 90.8114 194.666 90.8456C188.937 90.7517 183.038 90.8287 177.295 90.8331C176.914 102.495 177.024 114.485 177.005 126.178L161.13 126.228L161.122 40.9003Z"/><path fill="#F1F1EF" d="M177.214 45.5294C185.872 45.5736 199.513 44.4185 206.125 50.2897C214.704 57.907 213.656 72.5264 206.699 80.7905C198.832 87.5389 187.052 86.2078 177.17 86.0476C176.721 73.5056 176.982 58.0799 177.214 45.5294Z"/><path fill="#222A2A" d="M615.442 40.9029L631.86 41.0508C632.222 69.1821 631.981 98.0797 631.861 126.221L615.504 126.203C615.195 105.861 615.429 84.9418 615.442 64.546L615.462 54.9967C609.429 67.2784 590.764 110.977 582.943 125.901C582.943 125.901 582.014 126.269 581.891 126.317C580.127 125.593 551.976 63.4253 548.37 54.9243C547.633 70.8987 548.401 88.0924 548.115 104.137C548.012 109.938 548.571 120.41 547.923 125.778C546.526 126.432 543.736 126.256 542.088 126.258C542.351 97.8115 542.379 69.3635 542.174 40.9168L559.212 41.0356C568.777 61.3066 578.218 82.526 587.553 102.957C597.139 82.8267 606.392 61.3347 615.442 40.9029Z"/><path fill="#222A2A" d="M348.245 40.3177C353.693 40.4442 359.142 40.459 364.59 40.362C364.022 60.7096 365.051 82.536 364.526 102.984C364.423 106.983 364.937 123.514 364.297 126.218L348.305 126.234C348.097 112.544 348.242 98.7367 348.157 85.0202C332.554 84.4654 315.359 84.86 299.66 84.9336C299.334 98.3761 299.49 112.688 299.432 126.197C294.2 126.072 288.684 126.168 283.429 126.179C282.828 97.9983 283.145 68.5923 283.169 40.3186C288.613 40.4652 294.059 40.5417 299.505 40.548L299.606 79.3868C315.733 79.5815 331.861 79.5837 347.987 79.3931C348.249 66.2827 348.111 53.4014 348.245 40.3177Z"/><path fill="#222A2A" d="M964.501 38.4355C964.688 38.496 964.873 38.5618 965.056 38.6325C965.992 38.9972 966.78 39.5168 967.244 40.4186C971.54 48.761 975.597 57.9347 979.513 66.4355C988.689 86.2816 997.681 106.212 1006.49 126.224L988.199 126.265C986.13 119.636 980.423 107.051 977.516 100.471C974.522 100.1 970.775 100.079 967.706 99.9807C959.627 99.8663 951.149 99.8772 943.107 100.497C940.48 107.75 935.293 118.903 932.034 126.221L925.262 126.129C933.076 107.402 942.338 88.4514 950.424 69.7254C953.255 63.1693 961.038 43.7308 964.501 38.4355Z"/><path fill="#F1F1EF" d="M959.806 61.5756C961.785 63.6699 973.036 90.2172 975.329 95.2491L961.182 95.4582C956.061 95.5169 950.553 95.3461 945.402 95.2828C950.341 84.1064 955.142 72.8698 959.806 61.5756Z"/><path fill="#222A2A" d="M425.327 40.4675C436.5 40.3295 447.909 40.6865 459.119 40.7707C464.464 40.7165 479.838 40.2516 484.153 41.0669C484.992 42.004 484.784 43.1815 484.885 44.6676C483.312 46.548 475.555 45.4568 472.999 45.313C462.807 45.5862 452.096 45.3988 441.861 45.36C441.826 56.6677 441.869 67.9754 441.99 79.2825C447.09 79.3579 470.559 78.9242 474.29 79.5897C475.061 80.6212 474.679 83.1429 474.596 84.5523C463.753 84.4376 452.909 84.4447 442.066 84.5735C441.898 96.7308 441.877 108.89 442.003 121.047C456.874 121.112 471.744 120.949 486.61 120.558L486.56 126.143C466.761 125.707 445.37 126.175 425.423 126.233C425.326 97.6798 425.699 68.975 425.327 40.4675Z"/><path d="M459.119 40.7707C464.464 40.7165 479.838 40.2516 484.153 41.0669C484.992 42.004 484.784 43.1815 484.885 44.6676C483.312 46.548 475.555 45.4568 472.999 45.313C469.803 44.8007 450.359 45.1948 449.625 44.4058L452.6 44.2929C453.004 42.7794 452.085 42.1371 451.006 41.51L452.042 41.4034L451.858 41.4154C454.253 41.2429 456.721 40.9872 459.119 40.7707Z"/><path fill="#222A2A" d="M43.2001 40.2775C52.8472 40.1642 63.6024 40.6038 73.341 40.7523C78.7405 40.7087 97.2718 40.2477 101.646 41.0048C102.539 42.0112 102.198 43.3976 102.199 45.0575C100.819 46.4416 80.4286 45.3817 76.8184 45.3178C72.1786 45.6253 64.5355 45.3561 59.6732 45.3414C59.5586 56.6954 59.5645 68.0503 59.6911 79.4042C64.1617 79.4506 90.0965 78.6904 92.2231 80.0122C92.4509 81.6545 92.3296 82.2527 92.0754 83.8995C90.4756 84.9822 63.7933 84.4094 59.6418 84.4407C59.5047 96.6579 59.5207 108.876 59.6898 121.093C68.6135 121.107 77.5371 121.049 86.4598 120.918C91.2798 120.805 101.578 119.003 104.271 122.934C104.099 124.763 104.295 124.143 103.187 125.713C97.9094 126.589 85.8444 126.217 79.9029 126.188L43.3527 126.189C43.505 98.1106 43.7507 68.2755 43.2001 40.2775Z"/><path d="M73.341 40.7523C78.7405 40.7087 97.2718 40.2477 101.646 41.0048C102.539 42.0112 102.198 43.3976 102.199 45.0575C100.819 46.4416 80.4286 45.3817 76.8184 45.3178C73.3829 44.8971 71.3656 44.5938 67.8545 44.8718L69.5941 44.1015C69.8246 42.6509 69.6513 41.9278 68.2931 41.3316L69.5047 41.7774C70.6434 40.8204 71.8743 40.8626 73.341 40.7523Z"/><path fill="#222A2A" d="M694.033 40.4228C711.198 40.1073 733.139 40.4911 750.463 40.7855C752.563 40.7744 752.03 40.4809 753.428 41.6027C754.089 43.3087 754.081 42.6668 753.428 44.4024C750.667 46.4183 748.422 45.6834 744.961 45.3252L710.301 45.4222C710.145 56.7092 710.128 67.9977 710.251 79.2851C715.323 79.3748 738.891 78.9226 742.541 79.6426C743.107 81.0668 742.887 82.2933 742.751 83.8006C741.141 85.0039 714.905 84.5908 710.304 84.672C710.162 96.8031 710.151 108.935 710.27 121.067C723.383 120.963 736.787 121.228 749.923 120.713C752.196 120.624 754.084 121.358 755.175 123.42L754.703 124.638C752.068 127.2 737.949 126.14 733.846 126.134L694.132 126.225L694.033 40.4228Z"/><path d="M750.463 40.7855C752.563 40.7744 752.03 40.4809 753.428 41.6027C754.089 43.3087 754.081 42.6668 753.428 44.4024C750.667 46.4183 748.422 45.6834 744.961 45.3252C740.54 44.1833 720.227 45.44 718.89 44.4192L718.48 44.544C720.309 43.8158 719.93 44.2495 720.878 42.8042L720.667 41.781C719.114 41.8327 718.417 41.8792 716.901 41.5656C718.124 40.9159 745.648 41.3243 750.463 40.7855Z"/></svg>